# xmcd CD database file
#
# Track frame offsets:
#	150
#	14200
#	29218
#	47091
#	69174
#	84491
#	101671
#	118927
#	138408
#	155589
#
# Disc length: 2265 seconds
#
# Revision: 1
# Processed by: cddbd v1.5.1PL2 Copyright (c) Steve Scherf et al.
# Submitted via: CDex 1.51
#
DISCID=8e08d70a
DTITLE=Mirjana Bajzec - Sreco moja
DYEAR=2004
DGENRE=Narodne
TTITLE0=Sudbina
TTITLE1=Sreco moja
TTITLE2=Ja zbog tebe duso postojim (feat Djuka Caic)
TTITLE3=Hvala ti mama
TTITLE4=Ti nisi moju osjetio tugu
TTITLE5=Tudjina
TTITLE6=Kao zrna prasine
TTITLE7=Da si ostao
TTITLE8=Casa suza
TTITLE9=Oj, mjesece
EXTD=YEAR: 2004
EXTT0=
EXTT1=
EXTT2=
EXTT3=
EXTT4=
EXTT5=
EXTT6=
EXTT7=
EXTT8=
EXTT9=
PLAYORDER=
